# xmcd CD database file
#
# Track frame offsets:
#	150
#	13757
#	28509
#	45827
#	60470
#	74850
#	90737
#	107659
#	122264
#	137927
#	152481
#	167631
#
# Disc length: 2419 seconds
#
# Revision: 0
# Processed by: cddbd v1.5PL3 Copyright (c) Steve Scherf et al.
# Submitted via: CDex 1.51
#
DISCID=9509710c
DTITLE=Pettersson und Findus - ReiseFieberLieder
DYEAR=2002
DGENRE=Child
TTITLE0=Guten Morgen - es geht los!
TTITLE1=Urlaub auf Hawaii
TTITLE2=Schau mit mir in den Himmel
TTITLE3=Käpt'n Findus sticht heut in die See
TTITLE4=Eine Reise im Ballon
TTITLE5=In Rio
TTITLE6=Es geht immer weiter (mit der Eisenbahn)
TTITLE7=Komm mit uns auf die Reise
TTITLE8=Heute gehen wir in den Zirkus
TTITLE9=Wir wollen die ganze Welt sehen
TTITLE10=Der beste Angler
TTITLE11=ReiseFieberLieder
EXTD=YEAR: 2002
EXTT0=
EXTT1=
EXTT2=
EXTT3=
EXTT4=
EXTT5=
EXTT6=
EXTT7=
EXTT8=
EXTT9=
EXTT10=
EXTT11=
PLAYORDER=
